<svg width="39" height="42" viewBox="0 0 39 42" fill="none" xmlns="http://www.w3.org/2000/svg">
<path d="M29.25 0H9.75C4.36522 0 0 4.61953 0 10.318V30.954C0 36.6525 4.36522 41.2721 9.75 41.2721H29.25C34.6348 41.2721 39 36.6525 39 30.954V10.318C39 4.61953 34.6348 0 29.25 0Z" fill="#C9973A" fill-opacity="0.9"/>
<path d="M19.5018 26.8014C18.5845 26.8014 17.7685 26.6094 17.0538 26.2254C16.3498 25.8414 15.7951 25.3134 15.3898 24.6414C14.9845 23.9694 14.7818 23.2067 14.7818 22.3534V14.6894H16.9578V22.2414C16.9578 22.732 17.0645 23.1747 17.2778 23.5694C17.5018 23.964 17.8058 24.2734 18.1898 24.4974C18.5738 24.7107 19.0111 24.8174 19.5018 24.8174C20.0031 24.8174 20.4405 24.7107 20.8138 24.4974C21.1978 24.2734 21.4965 23.964 21.7098 23.5694C21.9338 23.1747 22.0458 22.732 22.0458 22.2414V14.6894H24.2218V22.3534C24.2218 23.2067 24.0191 23.9694 23.6138 24.6414C23.2085 25.3134 22.6485 25.8414 21.9338 26.2254C21.2298 26.6094 20.4191 26.8014 19.5018 26.8014Z" fill="#2A0410"/>
</svg>
