<svg width="14" height="14" viewBox="0 0 14 14" fill="none" xmlns="http://www.w3.org/2000/svg">
<g clip-path="url(#clip0_2525_262)">
<path d="M5 5.5C5.66304 5.5 6.29893 5.23661 6.76777 4.76777C7.23661 4.29893 7.5 3.66304 7.5 3C7.5 2.33696 7.23661 1.70107 6.76777 1.23223C6.29893 0.763392 5.66304 0.5 5 0.5C4.33696 0.5 3.70107 0.763392 3.23223 1.23223C2.76339 1.70107 2.5 2.33696 2.5 3C2.5 3.66304 2.76339 4.29893 3.23223 4.76777C3.70107 5.23661 4.33696 5.5 5 5.5Z" fill="white"/>
<path d="M5 5.5C5.66304 5.5 6.29893 5.23661 6.76777 4.76777C7.23661 4.29893 7.5 3.66304 7.5 3C7.5 2.33696 7.23661 1.70107 6.76777 1.23223C6.29893 0.763392 5.66304 0.5 5 0.5C4.33696 0.5 3.70107 0.763392 3.23223 1.23223C2.76339 1.70107 2.5 2.33696 2.5 3C2.5 3.66304 2.76339 4.29893 3.23223 4.76777C3.70107 5.23661 4.33696 5.5 5 5.5Z" stroke="white" stroke-linecap="round" stroke-linejoin="round"/>
<path d="M5 7.5C3.80653 7.5 2.66193 7.97411 1.81802 8.81802C0.974106 9.66193 0.5 10.8065 0.5 12V12.5H8.972C9.257 12.5 9.5 12.285 9.5 12C9.5 10.8065 9.02589 9.66193 8.18198 8.81802C7.33807 7.97411 6.19347 7.5 5 7.5Z" fill="white"/>
<path d="M5 12.5H0.5V11.958C0.50641 11.3534 0.634308 10.7564 0.876092 10.2022C1.11788 9.64807 1.46861 9.1482 1.90744 8.73232C2.34627 8.31644 2.86424 7.99304 3.43056 7.78134C3.99687 7.56964 4.59997 7.47396 5.204 7.5C5.80236 7.52831 6.38908 7.67553 6.92992 7.93307C7.47076 8.19061 7.95487 8.55331 8.354 9" stroke="white" stroke-linecap="round" stroke-linejoin="round"/>
<path d="M13.5 8.5L9.5 13.5L7.5 12" stroke="white" stroke-linecap="round" stroke-linejoin="round"/>
</g>
<defs>
<clipPath id="clip0_2525_262">
<rect width="14" height="14" fill="white"/>
</clipPath>
</defs>
</svg>
