<svg xmlns="http://www.w3.org/2000/svg" xmlns:xlink="http://www.w3.org/1999/xlink" width="40" zoomAndPan="magnify" viewBox="0 0 30 30.000001" height="40" preserveAspectRatio="xMidYMid meet" version="1.0"><defs><clipPath id="7bdf1ba937"><path d="M 1.5 0 L 20 0 L 20 26 L 1.5 26 Z M 1.5 0 " clip-rule="nonzero"/></clipPath><clipPath id="b6586839f6"><path d="M 14 15 L 28 15 L 28 29.03125 L 14 29.03125 Z M 14 15 " clip-rule="nonzero"/></clipPath><clipPath id="8b54b314c3"><path d="M 18 5 L 28.355469 5 L 28.355469 13 L 18 13 Z M 18 5 " clip-rule="nonzero"/></clipPath><clipPath id="db35061fc7"><path d="M 1.5 0 L 20 0 L 20 26 L 1.5 26 Z M 1.5 0 " clip-rule="nonzero"/></clipPath><clipPath id="e6b4877d0d"><path d="M 14 15 L 28 15 L 28 29.03125 L 14 29.03125 Z M 14 15 " clip-rule="nonzero"/></clipPath><clipPath id="ff83fb09b6"><path d="M 18 5 L 28.355469 5 L 28.355469 13 L 18 13 Z M 18 5 " clip-rule="nonzero"/></clipPath><clipPath id="674e49c5a7"><path d="M 1.5 0.726562 L 20 0.726562 L 20 27 L 1.5 27 Z M 1.5 0.726562 " clip-rule="nonzero"/></clipPath><clipPath id="b589f85cb8"><path d="M 14 15 L 28 15 L 28 29.03125 L 14 29.03125 Z M 14 15 " clip-rule="nonzero"/></clipPath><clipPath id="92826cf524"><path d="M 18 5 L 28.355469 5 L 28.355469 14 L 18 14 Z M 18 5 " clip-rule="nonzero"/></clipPath><clipPath id="bfc0773202"><path d="M 1.5 0 L 20 0 L 20 26 L 1.5 26 Z M 1.5 0 " clip-rule="nonzero"/></clipPath><clipPath id="a8a70473a3"><path d="M 14 15 L 28 15 L 28 29.03125 L 14 29.03125 Z M 14 15 " clip-rule="nonzero"/></clipPath><clipPath id="426686ba38"><path d="M 18 5 L 28.355469 5 L 28.355469 13 L 18 13 Z M 18 5 " clip-rule="nonzero"/></clipPath></defs><g clip-path="url(#7bdf1ba937)"><path fill="#ffffff" d="M 11.644531 0 C 14.652344 0 17.121094 2.667969 17.121094 5.984375 C 17.121094 9.300781 14.652344 11.96875 11.644531 11.96875 C 8.632812 11.96875 6.167969 9.300781 6.167969 5.984375 C 6.167969 2.667969 8.632812 0 11.644531 0 Z M 11.644531 0.9375 C 9.125 0.9375 7.105469 3.210938 7.105469 5.984375 C 7.105469 8.757812 9.125 11.03125 11.644531 11.03125 C 14.164062 11.03125 16.183594 8.757812 16.183594 5.984375 C 16.183594 3.210938 14.164062 0.9375 11.644531 0.9375 Z M 13.664062 24.78125 C 13.921875 24.78125 14.132812 24.992188 14.132812 25.25 C 14.132812 25.507812 13.921875 25.71875 13.664062 25.71875 L 5.113281 25.71875 C 4.15625 25.71875 3.238281 25.339844 2.5625 24.664062 C 1.886719 23.984375 1.507812 23.070312 1.507812 22.113281 L 1.507812 19.371094 C 1.507812 15.964844 3.605469 13.050781 6.578125 11.84375 C 6.785156 11.761719 7.019531 11.832031 7.140625 12.015625 C 8.167969 13.523438 9.800781 14.507812 11.644531 14.507812 C 13.488281 14.507812 15.121094 13.523438 16.144531 12.015625 C 16.269531 11.832031 16.503906 11.761719 16.710938 11.84375 C 17.6875 12.238281 18.570312 12.820312 19.3125 13.542969 C 19.429688 13.65625 19.542969 13.773438 19.652344 13.890625 C 19.828125 14.082031 19.816406 14.378906 19.625 14.554688 C 19.433594 14.726562 19.136719 14.714844 18.960938 14.523438 C 18.863281 14.417969 18.765625 14.316406 18.660156 14.214844 C 18.089844 13.660156 17.425781 13.199219 16.691406 12.855469 C 15.484375 14.441406 13.667969 15.445312 11.644531 15.445312 C 9.621094 15.445312 7.804688 14.441406 6.597656 12.855469 C 4.144531 14 2.445312 16.488281 2.445312 19.371094 L 2.445312 22.113281 C 2.445312 22.820312 2.726562 23.5 3.226562 24 C 3.726562 24.5 4.40625 24.78125 5.113281 24.78125 Z M 13.664062 24.78125 " fill-opacity="1" fill-rule="evenodd"/></g><g clip-path="url(#b6586839f6)"><path fill="#ffffff" d="M 23.015625 15.527344 C 23.015625 15.527344 23.304688 16.558594 23.304688 16.558594 C 23.949219 16.792969 24.546875 17.140625 25.070312 17.582031 L 26.105469 17.3125 C 26.277344 17.269531 26.460938 17.324219 26.578125 17.457031 C 27.171875 18.140625 27.628906 18.929688 27.921875 19.785156 C 27.976562 19.953125 27.933594 20.136719 27.8125 20.265625 C 27.8125 20.265625 27.0625 21.027344 27.0625 21.027344 C 27.179688 21.703125 27.179688 22.394531 27.0625 23.070312 L 27.8125 23.832031 C 27.933594 23.957031 27.976562 24.144531 27.921875 24.3125 C 27.628906 25.167969 27.171875 25.957031 26.578125 26.636719 C 26.460938 26.773438 26.277344 26.828125 26.105469 26.785156 C 26.105469 26.785156 25.070312 26.515625 25.070312 26.515625 C 24.546875 26.957031 23.949219 27.300781 23.304688 27.535156 L 23.015625 28.566406 C 22.96875 28.738281 22.832031 28.867188 22.65625 28.902344 C 21.769531 29.074219 20.855469 29.074219 19.96875 28.902344 C 19.796875 28.867188 19.65625 28.738281 19.609375 28.566406 C 19.609375 28.566406 19.324219 27.535156 19.324219 27.535156 C 18.679688 27.300781 18.078125 26.957031 17.554688 26.515625 L 16.519531 26.785156 C 16.347656 26.828125 16.164062 26.773438 16.050781 26.636719 C 15.457031 25.957031 15 25.167969 14.707031 24.3125 C 14.648438 24.144531 14.691406 23.957031 14.816406 23.832031 C 14.816406 23.832031 15.566406 23.070312 15.566406 23.070312 C 15.445312 22.394531 15.445312 21.703125 15.566406 21.027344 L 14.816406 20.265625 C 14.691406 20.136719 14.648438 19.953125 14.707031 19.785156 C 15 18.929688 15.457031 18.140625 16.050781 17.457031 C 16.164062 17.324219 16.347656 17.269531 16.519531 17.3125 C 16.519531 17.3125 17.554688 17.582031 17.554688 17.582031 C 18.078125 17.140625 18.679688 16.792969 19.324219 16.558594 L 19.609375 15.527344 C 19.65625 15.359375 19.796875 15.226562 19.96875 15.195312 C 20.855469 15.019531 21.769531 15.019531 22.65625 15.195312 C 22.832031 15.226562 22.96875 15.359375 23.015625 15.527344 Z M 22.195312 16.066406 C 21.609375 15.980469 21.015625 15.980469 20.433594 16.066406 L 20.160156 17.050781 C 20.117188 17.203125 20 17.324219 19.847656 17.371094 C 19.160156 17.585938 18.527344 17.953125 17.996094 18.441406 C 17.878906 18.546875 17.714844 18.589844 17.5625 18.550781 C 17.5625 18.550781 16.570312 18.292969 16.570312 18.292969 C 16.207031 18.757812 15.910156 19.269531 15.691406 19.820312 L 16.40625 20.546875 C 16.519531 20.660156 16.566406 20.824219 16.53125 20.976562 C 16.371094 21.683594 16.371094 22.414062 16.53125 23.117188 C 16.566406 23.273438 16.519531 23.433594 16.40625 23.546875 C 16.40625 23.546875 15.691406 24.277344 15.691406 24.277344 C 15.910156 24.824219 16.207031 25.339844 16.570312 25.800781 L 17.5625 25.546875 C 17.714844 25.507812 17.878906 25.546875 17.996094 25.65625 C 18.527344 26.144531 19.160156 26.507812 19.847656 26.726562 C 20 26.773438 20.117188 26.894531 20.160156 27.046875 C 20.160156 27.046875 20.433594 28.03125 20.433594 28.03125 C 21.015625 28.117188 21.609375 28.117188 22.195312 28.03125 L 22.46875 27.046875 C 22.507812 26.894531 22.625 26.773438 22.777344 26.726562 C 23.46875 26.507812 24.101562 26.144531 24.632812 25.65625 C 24.75 25.546875 24.910156 25.507812 25.066406 25.546875 C 25.066406 25.546875 26.054688 25.800781 26.054688 25.800781 C 26.421875 25.339844 26.71875 24.824219 26.933594 24.277344 L 26.21875 23.546875 C 26.109375 23.433594 26.0625 23.273438 26.097656 23.117188 C 26.253906 22.414062 26.253906 21.683594 26.097656 20.976562 C 26.0625 20.824219 26.109375 20.660156 26.21875 20.546875 C 26.21875 20.546875 26.933594 19.820312 26.933594 19.820312 C 26.71875 19.269531 26.421875 18.757812 26.054688 18.292969 L 25.066406 18.550781 C 24.910156 18.589844 24.75 18.546875 24.632812 18.441406 C 24.101562 17.953125 23.46875 17.585938 22.777344 17.371094 C 22.625 17.324219 22.507812 17.203125 22.46875 17.050781 Z M 21.3125 18.921875 C 23.039062 18.921875 24.4375 20.324219 24.4375 22.046875 C 24.4375 23.773438 23.039062 25.175781 21.3125 25.175781 C 19.589844 25.175781 18.1875 23.773438 18.1875 22.046875 C 18.1875 20.324219 19.589844 18.921875 21.3125 18.921875 Z M 21.3125 19.859375 C 20.105469 19.859375 19.125 20.839844 19.125 22.046875 C 19.125 23.257812 20.105469 24.238281 21.3125 24.238281 C 22.523438 24.238281 23.503906 23.257812 23.503906 22.046875 C 23.503906 20.839844 22.523438 19.859375 21.3125 19.859375 Z M 21.3125 19.859375 " fill-opacity="1" fill-rule="evenodd"/></g><g clip-path="url(#8b54b314c3)"><path fill="#ffffff" d="M 23.925781 6.925781 L 23.925781 5.59375 C 23.925781 5.410156 24.035156 5.242188 24.203125 5.167969 C 24.371094 5.089844 24.570312 5.121094 24.707031 5.246094 L 28.324219 8.484375 C 28.421875 8.574219 28.476562 8.699219 28.476562 8.828125 C 28.480469 8.960938 28.425781 9.085938 28.332031 9.175781 L 24.714844 12.566406 C 24.578125 12.695312 24.378906 12.730469 24.207031 12.65625 C 24.035156 12.582031 23.925781 12.410156 23.925781 12.226562 L 23.925781 10.746094 L 18.902344 10.746094 C 18.640625 10.746094 18.433594 10.535156 18.433594 10.277344 L 18.433594 7.390625 C 18.433594 7.132812 18.640625 6.925781 18.902344 6.925781 Z M 24.394531 7.859375 C 24.394531 7.859375 19.367188 7.859375 19.367188 7.859375 L 19.367188 9.808594 L 24.394531 9.808594 C 24.652344 9.808594 24.863281 10.019531 24.863281 10.277344 L 24.863281 11.144531 L 27.316406 8.84375 L 24.863281 6.644531 L 24.863281 7.390625 C 24.863281 7.652344 24.652344 7.859375 24.394531 7.859375 Z M 24.394531 7.859375 " fill-opacity="1" fill-rule="evenodd"/></g><g clip-path="url(#db35061fc7)"><path fill="#ffffff" d="M 11.644531 0 C 14.652344 0 17.121094 2.667969 17.121094 5.984375 C 17.121094 9.300781 14.652344 11.96875 11.644531 11.96875 C 8.632812 11.96875 6.167969 9.300781 6.167969 5.984375 C 6.167969 2.667969 8.632812 0 11.644531 0 Z M 11.644531 0.9375 C 9.125 0.9375 7.105469 3.210938 7.105469 5.984375 C 7.105469 8.757812 9.125 11.03125 11.644531 11.03125 C 14.164062 11.03125 16.183594 8.757812 16.183594 5.984375 C 16.183594 3.210938 14.164062 0.9375 11.644531 0.9375 Z M 13.664062 24.78125 C 13.921875 24.78125 14.132812 24.992188 14.132812 25.25 C 14.132812 25.507812 13.921875 25.71875 13.664062 25.71875 L 5.113281 25.71875 C 4.15625 25.71875 3.238281 25.339844 2.5625 24.664062 C 1.886719 23.984375 1.507812 23.070312 1.507812 22.113281 L 1.507812 19.371094 C 1.507812 15.964844 3.605469 13.050781 6.578125 11.84375 C 6.785156 11.761719 7.019531 11.832031 7.140625 12.015625 C 8.167969 13.523438 9.800781 14.507812 11.644531 14.507812 C 13.488281 14.507812 15.121094 13.523438 16.144531 12.015625 C 16.269531 11.832031 16.503906 11.761719 16.710938 11.84375 C 17.6875 12.238281 18.570312 12.820312 19.3125 13.542969 C 19.429688 13.65625 19.542969 13.773438 19.652344 13.890625 C 19.828125 14.082031 19.816406 14.378906 19.625 14.554688 C 19.433594 14.726562 19.136719 14.714844 18.960938 14.523438 C 18.863281 14.417969 18.765625 14.316406 18.660156 14.214844 C 18.089844 13.660156 17.425781 13.199219 16.691406 12.855469 C 15.484375 14.441406 13.667969 15.445312 11.644531 15.445312 C 9.621094 15.445312 7.804688 14.441406 6.597656 12.855469 C 4.144531 14 2.445312 16.488281 2.445312 19.371094 L 2.445312 22.113281 C 2.445312 22.820312 2.726562 23.5 3.226562 24 C 3.726562 24.5 4.40625 24.78125 5.113281 24.78125 Z M 13.664062 24.78125 " fill-opacity="1" fill-rule="evenodd"/></g><g clip-path="url(#e6b4877d0d)"><path fill="#ffffff" d="M 23.015625 15.527344 C 23.015625 15.527344 23.304688 16.558594 23.304688 16.558594 C 23.949219 16.792969 24.546875 17.140625 25.070312 17.582031 L 26.105469 17.3125 C 26.277344 17.269531 26.460938 17.324219 26.578125 17.457031 C 27.171875 18.140625 27.628906 18.929688 27.921875 19.785156 C 27.976562 19.953125 27.933594 20.136719 27.8125 20.265625 C 27.8125 20.265625 27.0625 21.027344 27.0625 21.027344 C 27.179688 21.703125 27.179688 22.394531 27.0625 23.070312 L 27.8125 23.832031 C 27.933594 23.957031 27.976562 24.144531 27.921875 24.3125 C 27.628906 25.167969 27.171875 25.957031 26.578125 26.636719 C 26.460938 26.773438 26.277344 26.828125 26.105469 26.785156 C 26.105469 26.785156 25.070312 26.515625 25.070312 26.515625 C 24.546875 26.957031 23.949219 27.300781 23.304688 27.535156 L 23.015625 28.566406 C 22.96875 28.738281 22.832031 28.867188 22.65625 28.902344 C 21.769531 29.074219 20.855469 29.074219 19.96875 28.902344 C 19.796875 28.867188 19.65625 28.738281 19.609375 28.566406 C 19.609375 28.566406 19.324219 27.535156 19.324219 27.535156 C 18.679688 27.300781 18.078125 26.957031 17.554688 26.515625 L 16.519531 26.785156 C 16.347656 26.828125 16.164062 26.773438 16.050781 26.636719 C 15.457031 25.957031 15 25.167969 14.707031 24.3125 C 14.648438 24.144531 14.691406 23.957031 14.816406 23.832031 C 14.816406 23.832031 15.566406 23.070312 15.566406 23.070312 C 15.445312 22.394531 15.445312 21.703125 15.566406 21.027344 L 14.816406 20.265625 C 14.691406 20.136719 14.648438 19.953125 14.707031 19.785156 C 15 18.929688 15.457031 18.140625 16.050781 17.457031 C 16.164062 17.324219 16.347656 17.269531 16.519531 17.3125 C 16.519531 17.3125 17.554688 17.582031 17.554688 17.582031 C 18.078125 17.140625 18.679688 16.792969 19.324219 16.558594 L 19.609375 15.527344 C 19.65625 15.359375 19.796875 15.226562 19.96875 15.195312 C 20.855469 15.019531 21.769531 15.019531 22.65625 15.195312 C 22.832031 15.226562 22.96875 15.359375 23.015625 15.527344 Z M 22.195312 16.066406 C 21.609375 15.980469 21.015625 15.980469 20.433594 16.066406 L 20.160156 17.050781 C 20.117188 17.203125 20 17.324219 19.847656 17.371094 C 19.160156 17.585938 18.527344 17.953125 17.996094 18.441406 C 17.878906 18.546875 17.714844 18.589844 17.5625 18.550781 C 17.5625 18.550781 16.570312 18.292969 16.570312 18.292969 C 16.207031 18.757812 15.910156 19.269531 15.691406 19.820312 L 16.40625 20.546875 C 16.519531 20.660156 16.566406 20.824219 16.53125 20.976562 C 16.371094 21.683594 16.371094 22.414062 16.53125 23.117188 C 16.566406 23.273438 16.519531 23.433594 16.40625 23.546875 C 16.40625 23.546875 15.691406 24.277344 15.691406 24.277344 C 15.910156 24.824219 16.207031 25.339844 16.570312 25.800781 L 17.5625 25.546875 C 17.714844 25.507812 17.878906 25.546875 17.996094 25.65625 C 18.527344 26.144531 19.160156 26.507812 19.847656 26.726562 C 20 26.773438 20.117188 26.894531 20.160156 27.046875 C 20.160156 27.046875 20.433594 28.03125 20.433594 28.03125 C 21.015625 28.117188 21.609375 28.117188 22.195312 28.03125 L 22.46875 27.046875 C 22.507812 26.894531 22.625 26.773438 22.777344 26.726562 C 23.46875 26.507812 24.101562 26.144531 24.632812 25.65625 C 24.75 25.546875 24.910156 25.507812 25.066406 25.546875 C 25.066406 25.546875 26.054688 25.800781 26.054688 25.800781 C 26.421875 25.339844 26.71875 24.824219 26.933594 24.277344 L 26.21875 23.546875 C 26.109375 23.433594 26.0625 23.273438 26.097656 23.117188 C 26.253906 22.414062 26.253906 21.683594 26.097656 20.976562 C 26.0625 20.824219 26.109375 20.660156 26.21875 20.546875 C 26.21875 20.546875 26.933594 19.820312 26.933594 19.820312 C 26.71875 19.269531 26.421875 18.757812 26.054688 18.292969 L 25.066406 18.550781 C 24.910156 18.589844 24.75 18.546875 24.632812 18.441406 C 24.101562 17.953125 23.46875 17.585938 22.777344 17.371094 C 22.625 17.324219 22.507812 17.203125 22.46875 17.050781 Z M 21.3125 18.921875 C 23.039062 18.921875 24.4375 20.324219 24.4375 22.046875 C 24.4375 23.773438 23.039062 25.175781 21.3125 25.175781 C 19.589844 25.175781 18.1875 23.773438 18.1875 22.046875 C 18.1875 20.324219 19.589844 18.921875 21.3125 18.921875 Z M 21.3125 19.859375 C 20.105469 19.859375 19.125 20.839844 19.125 22.046875 C 19.125 23.257812 20.105469 24.238281 21.3125 24.238281 C 22.523438 24.238281 23.503906 23.257812 23.503906 22.046875 C 23.503906 20.839844 22.523438 19.859375 21.3125 19.859375 Z M 21.3125 19.859375 " fill-opacity="1" fill-rule="evenodd"/></g><g clip-path="url(#ff83fb09b6)"><path fill="#ffffff" d="M 23.925781 6.925781 L 23.925781 5.59375 C 23.925781 5.410156 24.035156 5.242188 24.203125 5.167969 C 24.371094 5.089844 24.570312 5.121094 24.707031 5.246094 L 28.324219 8.484375 C 28.421875 8.574219 28.476562 8.699219 28.476562 8.828125 C 28.480469 8.960938 28.425781 9.085938 28.332031 9.175781 L 24.714844 12.566406 C 24.578125 12.695312 24.378906 12.730469 24.207031 12.65625 C 24.035156 12.582031 23.925781 12.410156 23.925781 12.226562 L 23.925781 10.746094 L 18.902344 10.746094 C 18.640625 10.746094 18.433594 10.535156 18.433594 10.277344 L 18.433594 7.390625 C 18.433594 7.132812 18.640625 6.925781 18.902344 6.925781 Z M 24.394531 7.859375 C 24.394531 7.859375 19.367188 7.859375 19.367188 7.859375 L 19.367188 9.808594 L 24.394531 9.808594 C 24.652344 9.808594 24.863281 10.019531 24.863281 10.277344 L 24.863281 11.144531 L 27.316406 8.84375 L 24.863281 6.644531 L 24.863281 7.390625 C 24.863281 7.652344 24.652344 7.859375 24.394531 7.859375 Z M 24.394531 7.859375 " fill-opacity="1" fill-rule="evenodd"/></g><g clip-path="url(#674e49c5a7)"><path fill="#ffffff" d="M 11.644531 0.726562 C 14.652344 0.726562 17.121094 3.394531 17.121094 6.710938 C 17.121094 10.023438 14.652344 12.695312 11.644531 12.695312 C 8.632812 12.695312 6.167969 10.023438 6.167969 6.710938 C 6.167969 3.394531 8.632812 0.726562 11.644531 0.726562 Z M 11.644531 1.664062 C 9.125 1.664062 7.105469 3.9375 7.105469 6.710938 C 7.105469 9.484375 9.125 11.757812 11.644531 11.757812 C 14.164062 11.757812 16.183594 9.484375 16.183594 6.710938 C 16.183594 3.9375 14.164062 1.664062 11.644531 1.664062 Z M 13.664062 25.507812 C 13.921875 25.507812 14.132812 25.71875 14.132812 25.976562 C 14.132812 26.234375 13.921875 26.445312 13.664062 26.445312 L 5.113281 26.445312 C 4.15625 26.445312 3.238281 26.066406 2.5625 25.386719 C 1.886719 24.710938 1.507812 23.792969 1.507812 22.839844 L 1.507812 20.097656 C 1.507812 16.691406 3.605469 13.773438 6.578125 12.570312 C 6.785156 12.484375 7.019531 12.558594 7.140625 12.738281 C 8.167969 14.25 9.800781 15.234375 11.644531 15.234375 C 13.488281 15.234375 15.121094 14.25 16.144531 12.738281 C 16.269531 12.558594 16.503906 12.484375 16.710938 12.570312 C 17.6875 12.964844 18.570312 13.546875 19.3125 14.269531 C 19.429688 14.382812 19.542969 14.496094 19.652344 14.617188 C 19.828125 14.808594 19.816406 15.105469 19.625 15.277344 C 19.433594 15.453125 19.136719 15.441406 18.960938 15.25 C 18.863281 15.144531 18.765625 15.039062 18.660156 14.941406 C 18.089844 14.386719 17.425781 13.925781 16.691406 13.582031 C 15.484375 15.167969 13.667969 16.171875 11.644531 16.171875 C 9.621094 16.171875 7.804688 15.167969 6.597656 13.582031 C 4.144531 14.726562 2.445312 17.214844 2.445312 20.097656 L 2.445312 22.839844 C 2.445312 23.546875 2.726562 24.226562 3.226562 24.726562 C 3.726562 25.226562 4.40625 25.507812 5.113281 25.507812 Z M 13.664062 25.507812 " fill-opacity="1" fill-rule="evenodd"/></g><g clip-path="url(#b589f85cb8)"><path fill="#ffffff" d="M 23.015625 16.253906 C 23.015625 16.253906 23.304688 17.285156 23.304688 17.285156 C 23.949219 17.519531 24.546875 17.863281 25.070312 18.304688 L 26.105469 18.039062 C 26.277344 17.992188 26.460938 18.050781 26.578125 18.183594 C 27.171875 18.863281 27.628906 19.65625 27.921875 20.511719 C 27.976562 20.679688 27.933594 20.863281 27.8125 20.988281 C 27.8125 20.988281 27.0625 21.753906 27.0625 21.753906 C 27.179688 22.429688 27.179688 23.121094 27.0625 23.792969 L 27.8125 24.558594 C 27.933594 24.683594 27.976562 24.871094 27.921875 25.039062 C 27.628906 25.894531 27.171875 26.683594 26.578125 27.363281 C 26.460938 27.496094 26.277344 27.554688 26.105469 27.507812 C 26.105469 27.507812 25.070312 27.242188 25.070312 27.242188 C 24.546875 27.683594 23.949219 28.027344 23.304688 28.261719 L 23.015625 29.292969 C 22.96875 29.464844 22.832031 29.59375 22.65625 29.628906 C 21.769531 29.800781 20.855469 29.800781 19.96875 29.628906 C 19.796875 29.59375 19.65625 29.464844 19.609375 29.292969 C 19.609375 29.292969 19.324219 28.261719 19.324219 28.261719 C 18.679688 28.027344 18.078125 27.683594 17.554688 27.242188 L 16.519531 27.507812 C 16.347656 27.554688 16.164062 27.496094 16.050781 27.363281 C 15.457031 26.683594 15 25.894531 14.707031 25.039062 C 14.648438 24.871094 14.691406 24.683594 14.816406 24.558594 C 14.816406 24.558594 15.566406 23.792969 15.566406 23.792969 C 15.445312 23.121094 15.445312 22.429688 15.566406 21.753906 L 14.816406 20.988281 C 14.691406 20.863281 14.648438 20.679688 14.707031 20.511719 C 15 19.65625 15.457031 18.863281 16.050781 18.183594 C 16.164062 18.050781 16.347656 17.992188 16.519531 18.039062 C 16.519531 18.039062 17.554688 18.304688 17.554688 18.304688 C 18.078125 17.863281 18.679688 17.519531 19.324219 17.285156 L 19.609375 16.253906 C 19.65625 16.082031 19.796875 15.953125 19.96875 15.921875 C 20.855469 15.746094 21.769531 15.746094 22.65625 15.921875 C 22.832031 15.953125 22.96875 16.082031 23.015625 16.253906 Z M 22.195312 16.789062 C 21.609375 16.703125 21.015625 16.703125 20.433594 16.789062 L 20.160156 17.773438 C 20.117188 17.929688 20 18.050781 19.847656 18.097656 C 19.160156 18.3125 18.527344 18.679688 17.996094 19.167969 C 17.878906 19.273438 17.714844 19.316406 17.5625 19.273438 C 17.5625 19.273438 16.570312 19.019531 16.570312 19.019531 C 16.207031 19.480469 15.910156 19.996094 15.691406 20.546875 L 16.40625 21.273438 C 16.519531 21.386719 16.566406 21.550781 16.53125 21.703125 C 16.371094 22.410156 16.371094 23.140625 16.53125 23.84375 C 16.566406 24 16.519531 24.160156 16.40625 24.273438 C 16.40625 24.273438 15.691406 25.003906 15.691406 25.003906 C 15.910156 25.550781 16.207031 26.066406 16.570312 26.527344 L 17.5625 26.273438 C 17.714844 26.234375 17.878906 26.273438 17.996094 26.382812 C 18.527344 26.871094 19.160156 27.234375 19.847656 27.453125 C 20 27.5 20.117188 27.621094 20.160156 27.773438 C 20.160156 27.773438 20.433594 28.757812 20.433594 28.757812 C 21.015625 28.84375 21.609375 28.84375 22.195312 28.757812 L 22.46875 27.773438 C 22.507812 27.621094 22.625 27.5 22.777344 27.453125 C 23.46875 27.234375 24.101562 26.871094 24.632812 26.382812 C 24.75 26.273438 24.910156 26.234375 25.066406 26.273438 C 25.066406 26.273438 26.054688 26.527344 26.054688 26.527344 C 26.421875 26.066406 26.71875 25.550781 26.933594 25.003906 L 26.21875 24.273438 C 26.109375 24.160156 26.0625 24 26.097656 23.84375 C 26.253906 23.140625 26.253906 22.410156 26.097656 21.703125 C 26.0625 21.550781 26.109375 21.386719 26.21875 21.273438 C 26.21875 21.273438 26.933594 20.546875 26.933594 20.546875 C 26.71875 19.996094 26.421875 19.480469 26.054688 19.019531 L 25.066406 19.273438 C 24.910156 19.316406 24.75 19.273438 24.632812 19.167969 C 24.101562 18.679688 23.46875 18.3125 22.777344 18.097656 C 22.625 18.050781 22.507812 17.929688 22.46875 17.773438 Z M 21.3125 19.648438 C 23.039062 19.648438 24.4375 21.046875 24.4375 22.773438 C 24.4375 24.5 23.039062 25.898438 21.3125 25.898438 C 19.589844 25.898438 18.1875 24.5 18.1875 22.773438 C 18.1875 21.046875 19.589844 19.648438 21.3125 19.648438 Z M 21.3125 20.585938 C 20.105469 20.585938 19.125 21.566406 19.125 22.773438 C 19.125 23.980469 20.105469 24.964844 21.3125 24.964844 C 22.523438 24.964844 23.503906 23.980469 23.503906 22.773438 C 23.503906 21.566406 22.523438 20.585938 21.3125 20.585938 Z M 21.3125 20.585938 " fill-opacity="1" fill-rule="evenodd"/></g><g clip-path="url(#92826cf524)"><path fill="#ffffff" d="M 23.925781 7.648438 L 23.925781 6.320312 C 23.925781 6.136719 24.035156 5.96875 24.203125 5.890625 C 24.371094 5.816406 24.570312 5.847656 24.707031 5.972656 L 28.324219 9.210938 C 28.421875 9.300781 28.476562 9.425781 28.476562 9.554688 C 28.480469 9.6875 28.425781 9.8125 28.332031 9.902344 L 24.714844 13.292969 C 24.578125 13.417969 24.378906 13.453125 24.207031 13.378906 C 24.035156 13.304688 23.925781 13.136719 23.925781 12.949219 L 23.925781 11.472656 L 18.902344 11.472656 C 18.640625 11.472656 18.433594 11.261719 18.433594 11.003906 L 18.433594 8.117188 C 18.433594 7.859375 18.640625 7.648438 18.902344 7.648438 Z M 24.394531 8.585938 C 24.394531 8.585938 19.367188 8.585938 19.367188 8.585938 L 19.367188 10.535156 L 24.394531 10.535156 C 24.652344 10.535156 24.863281 10.746094 24.863281 11.003906 L 24.863281 11.871094 L 27.316406 9.570312 L 24.863281 7.367188 L 24.863281 8.117188 C 24.863281 8.378906 24.652344 8.585938 24.394531 8.585938 Z M 24.394531 8.585938 " fill-opacity="1" fill-rule="evenodd"/></g><g clip-path="url(#bfc0773202)"><path fill="#ffffff" d="M 11.644531 0 C 14.652344 0 17.121094 2.667969 17.121094 5.984375 C 17.121094 9.300781 14.652344 11.96875 11.644531 11.96875 C 8.632812 11.96875 6.167969 9.300781 6.167969 5.984375 C 6.167969 2.667969 8.632812 0 11.644531 0 Z M 11.644531 0.9375 C 9.125 0.9375 7.105469 3.210938 7.105469 5.984375 C 7.105469 8.757812 9.125 11.03125 11.644531 11.03125 C 14.164062 11.03125 16.183594 8.757812 16.183594 5.984375 C 16.183594 3.210938 14.164062 0.9375 11.644531 0.9375 Z M 13.664062 24.78125 C 13.921875 24.78125 14.132812 24.992188 14.132812 25.25 C 14.132812 25.507812 13.921875 25.71875 13.664062 25.71875 L 5.113281 25.71875 C 4.15625 25.71875 3.238281 25.339844 2.5625 24.664062 C 1.886719 23.984375 1.507812 23.070312 1.507812 22.113281 L 1.507812 19.371094 C 1.507812 15.964844 3.605469 13.050781 6.578125 11.84375 C 6.785156 11.761719 7.019531 11.832031 7.140625 12.015625 C 8.167969 13.523438 9.800781 14.507812 11.644531 14.507812 C 13.488281 14.507812 15.121094 13.523438 16.144531 12.015625 C 16.269531 11.832031 16.503906 11.761719 16.710938 11.84375 C 17.6875 12.238281 18.570312 12.820312 19.3125 13.542969 C 19.429688 13.65625 19.542969 13.773438 19.652344 13.890625 C 19.828125 14.082031 19.816406 14.378906 19.625 14.554688 C 19.433594 14.726562 19.136719 14.714844 18.960938 14.523438 C 18.863281 14.417969 18.765625 14.316406 18.660156 14.214844 C 18.089844 13.660156 17.425781 13.199219 16.691406 12.855469 C 15.484375 14.441406 13.667969 15.445312 11.644531 15.445312 C 9.621094 15.445312 7.804688 14.441406 6.597656 12.855469 C 4.144531 14 2.445312 16.488281 2.445312 19.371094 L 2.445312 22.113281 C 2.445312 22.820312 2.726562 23.5 3.226562 24 C 3.726562 24.5 4.40625 24.78125 5.113281 24.78125 Z M 13.664062 24.78125 " fill-opacity="1" fill-rule="evenodd"/></g><g clip-path="url(#a8a70473a3)"><path fill="#ffffff" d="M 23.015625 15.527344 C 23.015625 15.527344 23.304688 16.558594 23.304688 16.558594 C 23.949219 16.792969 24.546875 17.140625 25.070312 17.582031 L 26.105469 17.3125 C 26.277344 17.269531 26.460938 17.324219 26.578125 17.457031 C 27.171875 18.140625 27.628906 18.929688 27.921875 19.785156 C 27.976562 19.953125 27.933594 20.136719 27.8125 20.265625 C 27.8125 20.265625 27.0625 21.027344 27.0625 21.027344 C 27.179688 21.703125 27.179688 22.394531 27.0625 23.070312 L 27.8125 23.832031 C 27.933594 23.957031 27.976562 24.144531 27.921875 24.3125 C 27.628906 25.167969 27.171875 25.957031 26.578125 26.636719 C 26.460938 26.773438 26.277344 26.828125 26.105469 26.785156 C 26.105469 26.785156 25.070312 26.515625 25.070312 26.515625 C 24.546875 26.957031 23.949219 27.300781 23.304688 27.535156 L 23.015625 28.566406 C 22.96875 28.738281 22.832031 28.867188 22.65625 28.902344 C 21.769531 29.074219 20.855469 29.074219 19.96875 28.902344 C 19.796875 28.867188 19.65625 28.738281 19.609375 28.566406 C 19.609375 28.566406 19.324219 27.535156 19.324219 27.535156 C 18.679688 27.300781 18.078125 26.957031 17.554688 26.515625 L 16.519531 26.785156 C 16.347656 26.828125 16.164062 26.773438 16.050781 26.636719 C 15.457031 25.957031 15 25.167969 14.707031 24.3125 C 14.648438 24.144531 14.691406 23.957031 14.816406 23.832031 C 14.816406 23.832031 15.566406 23.070312 15.566406 23.070312 C 15.445312 22.394531 15.445312 21.703125 15.566406 21.027344 L 14.816406 20.265625 C 14.691406 20.136719 14.648438 19.953125 14.707031 19.785156 C 15 18.929688 15.457031 18.140625 16.050781 17.457031 C 16.164062 17.324219 16.347656 17.269531 16.519531 17.3125 C 16.519531 17.3125 17.554688 17.582031 17.554688 17.582031 C 18.078125 17.140625 18.679688 16.792969 19.324219 16.558594 L 19.609375 15.527344 C 19.65625 15.359375 19.796875 15.226562 19.96875 15.195312 C 20.855469 15.019531 21.769531 15.019531 22.65625 15.195312 C 22.832031 15.226562 22.96875 15.359375 23.015625 15.527344 Z M 22.195312 16.066406 C 21.609375 15.980469 21.015625 15.980469 20.433594 16.066406 L 20.160156 17.050781 C 20.117188 17.203125 20 17.324219 19.847656 17.371094 C 19.160156 17.585938 18.527344 17.953125 17.996094 18.441406 C 17.878906 18.546875 17.714844 18.589844 17.5625 18.550781 C 17.5625 18.550781 16.570312 18.292969 16.570312 18.292969 C 16.207031 18.757812 15.910156 19.269531 15.691406 19.820312 L 16.40625 20.546875 C 16.519531 20.660156 16.566406 20.824219 16.53125 20.976562 C 16.371094 21.683594 16.371094 22.414062 16.53125 23.117188 C 16.566406 23.273438 16.519531 23.433594 16.40625 23.546875 C 16.40625 23.546875 15.691406 24.277344 15.691406 24.277344 C 15.910156 24.824219 16.207031 25.339844 16.570312 25.800781 L 17.5625 25.546875 C 17.714844 25.507812 17.878906 25.546875 17.996094 25.65625 C 18.527344 26.144531 19.160156 26.507812 19.847656 26.726562 C 20 26.773438 20.117188 26.894531 20.160156 27.046875 C 20.160156 27.046875 20.433594 28.03125 20.433594 28.03125 C 21.015625 28.117188 21.609375 28.117188 22.195312 28.03125 L 22.46875 27.046875 C 22.507812 26.894531 22.625 26.773438 22.777344 26.726562 C 23.46875 26.507812 24.101562 26.144531 24.632812 25.65625 C 24.75 25.546875 24.910156 25.507812 25.066406 25.546875 C 25.066406 25.546875 26.054688 25.800781 26.054688 25.800781 C 26.421875 25.339844 26.71875 24.824219 26.933594 24.277344 L 26.21875 23.546875 C 26.109375 23.433594 26.0625 23.273438 26.097656 23.117188 C 26.253906 22.414062 26.253906 21.683594 26.097656 20.976562 C 26.0625 20.824219 26.109375 20.660156 26.21875 20.546875 C 26.21875 20.546875 26.933594 19.820312 26.933594 19.820312 C 26.71875 19.269531 26.421875 18.757812 26.054688 18.292969 L 25.066406 18.550781 C 24.910156 18.589844 24.75 18.546875 24.632812 18.441406 C 24.101562 17.953125 23.46875 17.585938 22.777344 17.371094 C 22.625 17.324219 22.507812 17.203125 22.46875 17.050781 Z M 21.3125 18.921875 C 23.039062 18.921875 24.4375 20.324219 24.4375 22.046875 C 24.4375 23.773438 23.039062 25.175781 21.3125 25.175781 C 19.589844 25.175781 18.1875 23.773438 18.1875 22.046875 C 18.1875 20.324219 19.589844 18.921875 21.3125 18.921875 Z M 21.3125 19.859375 C 20.105469 19.859375 19.125 20.839844 19.125 22.046875 C 19.125 23.257812 20.105469 24.238281 21.3125 24.238281 C 22.523438 24.238281 23.503906 23.257812 23.503906 22.046875 C 23.503906 20.839844 22.523438 19.859375 21.3125 19.859375 Z M 21.3125 19.859375 " fill-opacity="1" fill-rule="evenodd"/></g><g clip-path="url(#426686ba38)"><path fill="#ffffff" d="M 23.925781 6.925781 L 23.925781 5.59375 C 23.925781 5.410156 24.035156 5.242188 24.203125 5.167969 C 24.371094 5.089844 24.570312 5.121094 24.707031 5.246094 L 28.324219 8.484375 C 28.421875 8.574219 28.476562 8.699219 28.476562 8.828125 C 28.480469 8.960938 28.425781 9.085938 28.332031 9.175781 L 24.714844 12.566406 C 24.578125 12.695312 24.378906 12.730469 24.207031 12.65625 C 24.035156 12.582031 23.925781 12.410156 23.925781 12.226562 L 23.925781 10.746094 L 18.902344 10.746094 C 18.640625 10.746094 18.433594 10.535156 18.433594 10.277344 L 18.433594 7.390625 C 18.433594 7.132812 18.640625 6.925781 18.902344 6.925781 Z M 24.394531 7.859375 C 24.394531 7.859375 19.367188 7.859375 19.367188 7.859375 L 19.367188 9.808594 L 24.394531 9.808594 C 24.652344 9.808594 24.863281 10.019531 24.863281 10.277344 L 24.863281 11.144531 L 27.316406 8.84375 L 24.863281 6.644531 L 24.863281 7.390625 C 24.863281 7.652344 24.652344 7.859375 24.394531 7.859375 Z M 24.394531 7.859375 " fill-opacity="1" fill-rule="evenodd"/></g></svg>