<svg width="31" height="31" viewBox="0 0 31 31" fill="none" xmlns="http://www.w3.org/2000/svg">
<path d="M21.6173 0.5H8.94693C4.28182 0.5 0.5 4.29151 0.5 8.96857V21.6714C0.5 26.3485 4.28182 30.14 8.94693 30.14H21.6173C26.2824 30.14 30.0642 26.3485 30.0642 21.6714V8.96857C30.0642 4.29151 26.2824 0.5 21.6173 0.5Z" fill="#856363" fill-opacity="0.15" stroke="white" stroke-opacity="0.2"/>
<g clip-path="url(#clip0_5180_1522)">
<path d="M14.1211 23.6001H16.5978Z" fill="#8C2323"/>
<path d="M14.1211 23.6001H16.5978" stroke="#C92121" stroke-linecap="round" stroke-linejoin="round"/>
<path d="M15.3594 10.3003C16.5455 10.3003 17.6806 10.7568 18.5146 11.5649C19.3481 12.3726 19.8134 13.4649 19.8135 14.6001V18.8003C19.8135 19.2691 19.9604 19.721 20.2266 20.1001H10.4922C10.7586 19.721 10.9062 19.2693 10.9062 18.8003V14.6001C10.9063 13.4649 11.3716 12.3726 12.2051 11.5649C13.039 10.7569 14.1735 10.3004 15.3594 10.3003Z" fill="#8C2323" stroke="#C92121"/>
<path d="M20.3133 14.6003C20.3133 13.3272 19.7914 12.1064 18.8624 11.2062C17.9335 10.306 16.6736 9.80029 15.3598 9.80029C14.0461 9.80029 12.7862 10.306 11.8572 11.2062C10.9283 12.1064 10.4064 13.3272 10.4064 14.6003V18.8003C10.4064 19.2777 10.2107 19.7356 9.86231 20.0731C9.51396 20.4107 9.04147 20.6003 8.54883 20.6003H22.1708C21.6782 20.6003 21.2056 20.4107 20.8573 20.0731C20.5089 19.7356 20.3133 19.2777 20.3133 18.8003V14.6003Z" fill="#8C2323" stroke="#C92121" stroke-linecap="round" stroke-linejoin="round"/>
<path d="M7.31055 14.4441C7.31121 13.3019 7.59232 12.1762 8.13064 11.16C8.66895 10.1439 9.44904 9.2664 10.4064 8.6001" fill="#8C2323"/>
<path d="M7.31055 14.4441C7.31121 13.3019 7.59232 12.1762 8.13064 11.16C8.66895 10.1439 9.44904 9.2664 10.4064 8.6001" stroke="#C92121" stroke-linecap="round" stroke-linejoin="round"/>
<path d="M23.4084 14.4441C23.4078 13.3019 23.1267 12.1762 22.5884 11.16C22.05 10.1439 21.2699 9.2664 20.3125 8.6001" fill="#8C2323"/>
<path d="M23.4084 14.4441C23.4078 13.3019 23.1267 12.1762 22.5884 11.16C22.05 10.1439 21.2699 9.2664 20.3125 8.6001" stroke="#C92121" stroke-linecap="round" stroke-linejoin="round"/>
</g>
<defs>
<clipPath id="clip0_5180_1522">
<rect width="17.3371" height="16.8" fill="white" transform="translate(6.69141 7.7002)"/>
</clipPath>
</defs>
</svg>
