<svg width="17" height="14" viewBox="0 0 17 14" fill="none" xmlns="http://www.w3.org/2000/svg">
<path d="M3.29787 13.1228L0.388672 11.0541V7.49854H3.56911C4.20059 7.49854 4.80618 7.71259 5.25271 8.09361L6.63867 9.27631C7.13178 9.6971 7.13178 10.3794 6.63867 10.8001C6.50106 10.9176 6.3396 11.0022 6.16759 11.0541H11.4998C12.5956 11.0541 13.4839 11.8122 13.4839 12.7472C13.4839 13.2148 13.0397 13.5938 12.4919 13.5938H4.82212C4.26514 13.5938 3.72577 13.4271 3.29787 13.1228Z" fill="white"/>
<path d="M11.1037 8.51468C13.7336 8.51468 15.8656 6.69539 15.8656 4.45119C15.8656 2.20698 13.7336 0.387695 11.1037 0.387695C8.47377 0.387695 6.3418 2.20698 6.3418 4.45119C6.3418 6.69539 8.47377 8.51468 11.1037 8.51468Z" fill="white"/>
<path d="M11.1037 8.51468C13.7336 8.51468 15.8656 6.69539 15.8656 4.45119C15.8656 2.20698 13.7336 0.387695 11.1037 0.387695C8.47377 0.387695 6.3418 2.20698 6.3418 4.45119C6.3418 6.69539 8.47377 8.51468 11.1037 8.51468Z" stroke="#9E2040" stroke-width="0.77551" stroke-linecap="round" stroke-linejoin="round"/>
<path d="M11.1035 5.46729V3.43555" stroke="#9E2040" stroke-width="0.77551" stroke-linecap="round" stroke-linejoin="round"/>
<path d="M0.388672 11.0542L3.29787 13.1229C3.72577 13.4272 4.26514 13.5939 4.82212 13.5939H12.4919C13.0397 13.5939 13.4839 13.2149 13.4839 12.7473C13.4839 11.8122 12.5956 11.0542 11.4998 11.0542H6.16759" stroke="#9E2040" stroke-width="0.77551" stroke-linecap="round" stroke-linejoin="round"/>
<path d="M3.9601 10.0382L4.85296 10.8001C5.34606 11.2209 6.14556 11.2209 6.63867 10.8001C7.13178 10.3794 7.13178 9.6971 6.63867 9.27631L5.25271 8.09361C4.80618 7.71259 4.20059 7.49854 3.56911 7.49854H0.388672" stroke="#9E2040" stroke-width="0.77551" stroke-linecap="round" stroke-linejoin="round"/>
</svg>
