<svg width="33" height="31" viewBox="0 0 33 31" fill="none" xmlns="http://www.w3.org/2000/svg">
<path d="M20.0049 25.6215C18.9379 24.6174 18.4044 23.3964 18.4044 21.9583C18.4044 20.5203 18.9379 19.2996 20.0049 18.2964C21.0719 17.2932 22.3713 16.7916 23.903 16.7916C25.4357 16.7916 26.7355 17.2932 27.8025 18.2964C28.8704 19.2988 29.4044 20.5194 29.4044 21.9583C29.4044 23.3972 28.8704 24.6183 27.8025 25.6215C26.7346 26.6247 25.4352 27.1258 23.9044 27.125C22.3735 27.1241 21.0737 26.6229 20.0049 25.6215ZM24.4324 21.7504V18.7291C24.4324 18.5905 24.3815 18.473 24.2798 18.3765C24.178 18.2801 24.0524 18.2323 23.903 18.2331C23.7536 18.234 23.6285 18.2818 23.5276 18.3765C23.4268 18.4712 23.3759 18.5888 23.375 18.7291V21.7426C23.375 21.8812 23.4007 22.0104 23.452 22.1301C23.5024 22.2507 23.5877 22.3669 23.7078 22.4789L25.8046 24.4499C25.9073 24.5455 26.0283 24.5976 26.1676 24.6062C26.307 24.6148 26.4362 24.5627 26.5554 24.4499C26.6745 24.3371 26.7346 24.2196 26.7355 24.0973C26.7364 23.975 26.6768 23.8575 26.5567 23.7447L24.4324 21.7504ZM7.722 25.8333C7.106 25.8333 6.58167 25.6301 6.149 25.2236C5.71633 24.8172 5.5 24.3251 5.5 23.7473V7.25269C5.5 6.67574 5.71633 6.18362 6.149 5.77631C6.58167 5.36987 7.106 5.16664 7.722 5.16664H14.0965C14.2248 4.66203 14.5104 4.23794 14.9531 3.89435C15.3959 3.54991 15.9115 3.37769 16.5 3.37769C17.0995 3.37769 17.6192 3.54991 18.0592 3.89435C18.4992 4.23707 18.7834 4.66117 18.9117 5.16664H25.278C25.894 5.16664 26.4183 5.36987 26.851 5.77631C27.2837 6.18275 27.5 6.67531 27.5 7.25398V13.463C27.5 13.6473 27.4345 13.801 27.3034 13.9241C27.1723 14.0473 27.0087 14.1089 26.8125 14.1089C26.6163 14.1089 26.4527 14.0473 26.3216 13.9241C26.1905 13.801 26.125 13.6473 26.125 13.463V7.25398C26.125 7.05506 26.037 6.8725 25.861 6.70631C25.685 6.54012 25.4907 6.45745 25.278 6.45831H22V8.29635C22 8.59602 21.8946 8.84488 21.6838 9.04293C21.4729 9.24099 21.208 9.34002 20.889 9.34002H12.111C11.792 9.34002 11.5271 9.24099 11.3162 9.04293C11.1054 8.84488 11 8.59602 11 8.29635V6.45831H7.722C7.51025 6.45831 7.31592 6.54098 7.139 6.70631C6.96208 6.87164 6.87408 7.0542 6.875 7.25398V23.7473C6.875 23.9789 6.95429 24.1692 7.11287 24.3182C7.27146 24.4672 7.4745 24.5416 7.722 24.5416H15.7328C15.9289 24.5416 16.0925 24.6032 16.2236 24.7264C16.3547 24.8495 16.4203 25.0032 16.4203 25.1875C16.4203 25.3718 16.3547 25.5255 16.2236 25.6486C16.0925 25.7717 15.9289 25.8333 15.7328 25.8333H7.722ZM17.2948 6.4596C17.5056 6.26155 17.611 6.01269 17.611 5.71302C17.611 5.41335 17.5056 5.16449 17.2948 4.96644C17.0839 4.76838 16.819 4.66935 16.5 4.66935C16.181 4.66935 15.9161 4.76838 15.7052 4.96644C15.4944 5.16449 15.389 5.41335 15.389 5.71302C15.389 6.01269 15.4944 6.26155 15.7052 6.4596C15.9161 6.65766 16.181 6.75669 16.5 6.75669C16.819 6.75669 17.0839 6.65766 17.2948 6.4596Z" fill="#3B0718"/>
</svg>
