<svg width="19" height="13" viewBox="0 0 19 13" fill="none" xmlns="http://www.w3.org/2000/svg">
<path d="M9.38907 0C6.97138 0 5.0701 1.83674 4.80427 4.18107C4.29306 4.26377 3.81367 4.48298 3.41673 4.81557C3.01979 5.14816 2.72004 5.58178 2.54913 6.07062C1.10556 6.48667 0 7.77415 0 9.38907C0 11.3396 1.57032 12.91 3.5209 12.91H15.2572C17.2078 12.91 18.7781 11.3396 18.7781 9.38907C18.7781 8.35627 18.2764 7.43145 17.5493 6.78478C17.4132 4.7227 15.7684 3.07727 13.6987 2.97047C12.9921 1.25168 11.3713 0 9.38907 0ZM9.38907 1.17363C11.0099 1.17363 12.3056 2.2123 12.7633 3.68521L12.8924 4.10772H13.4968C15.1135 4.10772 16.4309 5.42512 16.4309 7.0418V7.33521L16.6691 7.51888C16.9567 7.73926 17.1903 8.02216 17.3524 8.34617C17.5144 8.67018 17.6006 9.02681 17.6045 9.38907C17.6045 10.7247 16.5928 11.7363 15.2572 11.7363H3.5209C2.18531 11.7363 1.17363 10.7247 1.17363 9.38907C1.17363 8.2037 2.02452 7.28357 3.09839 7.09696L3.48393 7.02361L3.55728 6.63807C3.73333 5.84646 4.43399 5.28135 5.28135 5.28135H5.86817V4.69454C5.86817 2.71696 7.4115 1.17363 9.38907 1.17363ZM8.80225 4.10772V7.959L7.46431 6.61988L6.61929 7.4649L8.96656 9.81217L9.38907 10.2147L9.81158 9.81158L12.1588 7.46431L11.3138 6.6193L9.97589 7.959V4.10772H8.80225Z" fill="white"/>
</svg>
