<svg width="12" height="12" viewBox="0 0 12 12" fill="none" xmlns="http://www.w3.org/2000/svg">
<path d="M5.72104 1.7876C4.24787 1.7876 3.08936 2.90678 2.92738 4.33525C2.61589 4.38564 2.32378 4.51921 2.08191 4.72187C1.84005 4.92453 1.6574 5.18874 1.55326 5.48661C0.673652 5.74012 0 6.52462 0 7.50864C0 8.69718 0.956844 9.65402 2.14539 9.65402H9.29669C10.4852 9.65402 11.4421 8.69718 11.4421 7.50864C11.4421 6.87932 11.1364 6.3158 10.6933 5.92176C10.6104 4.66528 9.60812 3.66267 8.34699 3.59759C7.91649 2.55028 6.92889 1.7876 5.72104 1.7876ZM5.72104 2.50273C6.70863 2.50273 7.49813 3.13562 7.77704 4.0331L7.8557 4.29055H8.22399C9.20908 4.29055 10.0118 5.09328 10.0118 6.07838V6.25716L10.157 6.36908C10.3322 6.50336 10.4746 6.67573 10.5733 6.87316C10.6721 7.07059 10.7246 7.2879 10.7269 7.50864C10.7269 8.32245 10.1105 8.93889 9.29669 8.93889H2.14539C1.33157 8.93889 0.71513 8.32245 0.71513 7.50864C0.71513 6.78635 1.2336 6.22569 1.88794 6.11199L2.12286 6.06729L2.16756 5.83237C2.27483 5.35002 2.70176 5.00568 3.21808 5.00568H3.57565V4.64812C3.57565 3.44312 4.51604 2.50273 5.72104 2.50273ZM5.36347 4.29055V6.63725L4.54822 5.82129L4.03333 6.33618L5.46359 7.76644L5.72104 8.01173L5.97848 7.76608L7.40874 6.33582L6.89385 5.82093L6.0786 6.63725V4.29055H5.36347Z" fill="white"/>
</svg>
