<svg width="5" height="10" viewBox="0 0 5 10" fill="none" xmlns="http://www.w3.org/2000/svg">
<path d="M1.24799 9.84106V4.29006H-1.36606e-05V2.76906H1.24799V2.53506C1.24799 1.99773 1.35632 1.54273 1.57299 1.17006C1.79832 0.788731 2.11032 0.498397 2.50899 0.299064C2.90765 0.0997307 3.37999 6.4075e-05 3.92599 6.4075e-05C4.02999 6.4075e-05 4.14265 0.00873063 4.26399 0.0260637C4.39399 0.0347308 4.50232 0.0477309 4.58899 0.065064V1.53406C4.50232 1.51673 4.41999 1.50806 4.34199 1.50806C4.27265 1.4994 4.20765 1.49506 4.14699 1.49506C3.76565 1.49506 3.47099 1.58173 3.26299 1.75506C3.05499 1.91973 2.95099 2.17973 2.95099 2.53506V2.76906H4.52399V4.29006H2.95099V9.84106H1.24799Z" fill="white"/>
</svg>
