<svg width="19" height="21" viewBox="0 0 19 21" fill="none" xmlns="http://www.w3.org/2000/svg">
<path d="M12.5874 0.899902H6.2124C3.27839 0.899902 0.899902 3.56502 0.899902 6.8526V13.9958C0.899902 17.2834 3.27839 19.9485 6.2124 19.9485H12.5874C15.5214 19.9485 17.8999 17.2834 17.8999 13.9958V6.8526C17.8999 3.56502 15.5214 0.899902 12.5874 0.899902Z" stroke="white" stroke-width="1.8"/>
<path d="M9.3999 14.657C11.8852 14.657 13.8999 12.7618 13.8999 10.4239C13.8999 8.08611 11.8852 6.19092 9.3999 6.19092C6.91462 6.19092 4.8999 8.08611 4.8999 10.4239C4.8999 12.7618 6.91462 14.657 9.3999 14.657Z" stroke="white" stroke-width="1.5"/>
<path d="M15.3999 5.13327C16.2283 5.13327 16.8999 4.42257 16.8999 3.54588C16.8999 2.66919 16.2283 1.9585 15.3999 1.9585C14.5715 1.9585 13.8999 2.66919 13.8999 3.54588C13.8999 4.42257 14.5715 5.13327 15.3999 5.13327Z" fill="white"/>
</svg>
