<svg width="9" height="9" viewBox="0 0 9 9" fill="none" xmlns="http://www.w3.org/2000/svg">
<path d="M0.000101611 8.19507V2.21107H1.4411V8.19507H0.000101611ZM0.000101611 1.54007V6.76513e-05H1.4411V1.54007H0.000101611ZM2.77159 8.19507V2.21107H4.12459V3.38807L4.01459 3.17907C4.15392 2.81973 4.38125 2.5484 4.69659 2.36507C5.01925 2.1744 5.39325 2.07907 5.81859 2.07907C6.25859 2.07907 6.64725 2.1744 6.98459 2.36507C7.32925 2.55573 7.59692 2.8234 7.78759 3.16807C7.97825 3.5054 8.07359 3.89773 8.07359 4.34507V8.19507H6.63259V4.68607C6.63259 4.42207 6.58125 4.19473 6.47859 4.00407C6.37592 3.8134 6.23292 3.66673 6.04959 3.56407C5.87359 3.45407 5.66459 3.39907 5.42259 3.39907C5.18792 3.39907 4.97892 3.45407 4.79559 3.56407C4.61225 3.66673 4.46925 3.8134 4.36659 4.00407C4.26392 4.19473 4.21259 4.42207 4.21259 4.68607V8.19507H2.77159Z" fill="white"/>
</svg>
