<svg width="329" height="332" viewBox="0 0 329 332" fill="none" xmlns="http://www.w3.org/2000/svg">
<path d="M140.729 322.001H188.269" stroke="white" stroke-width="20" stroke-linecap="round" stroke-linejoin="round"/>
<path d="M259.589 134.805C259.589 108.326 249.572 82.931 231.74 64.2072C213.909 45.4837 189.724 34.9648 164.507 34.9648C139.29 34.9648 115.105 45.4837 97.274 64.2072C79.4428 82.931 69.4252 108.326 69.4252 134.805V222.165C69.4252 232.094 65.6685 241.619 58.9819 248.64C52.2953 255.661 43.2259 259.605 33.7695 259.605H295.245C285.789 259.605 276.718 255.661 270.031 248.64C263.345 241.619 259.589 232.094 259.589 222.165V134.805Z" fill="white"/>
<path d="M259.589 134.805C259.589 108.326 249.572 82.931 231.74 64.2072C213.909 45.4837 189.724 34.9648 164.507 34.9648C139.29 34.9648 115.105 45.4837 97.274 64.2072C79.4428 82.931 69.4252 108.326 69.4252 134.805V222.165C69.4252 232.094 65.6685 241.619 58.9819 248.64C52.2953 255.661 43.2259 259.605 33.7695 259.605H295.245C285.789 259.605 276.718 255.661 270.031 248.64C263.345 241.619 259.589 232.094 259.589 222.165V134.805Z" stroke="white" stroke-linecap="round" stroke-linejoin="round"/>
<path d="M10 131.556C10.0128 107.798 15.4086 84.3835 25.7418 63.2474C36.0748 42.1113 51.0485 23.86 69.4262 10.001" stroke="white" stroke-width="20" stroke-linecap="round" stroke-linejoin="round"/>
<path d="M319 131.556C318.989 107.798 313.593 84.3835 303.26 63.2474C292.927 42.1113 277.951 23.86 259.574 10.001" stroke="white" stroke-width="20" stroke-linecap="round" stroke-linejoin="round"/>
</svg>
