<svg width="17" height="15" viewBox="0 0 17 15" fill="none" xmlns="http://www.w3.org/2000/svg">
<g clip-path="url(#clip0_3459_11118)">
<path d="M6.03521 0.666504H1.38759C1.23351 0.666504 1.08575 0.718734 0.976798 0.811705C0.867848 0.904675 0.806641 1.03077 0.806641 1.16225V5.12822" stroke="#9E2040" stroke-width="0.77551" stroke-linecap="round" stroke-linejoin="round"/>
<path d="M15.9102 5.12822V1.16225C15.9102 1.03077 15.849 0.904675 15.7401 0.811705C15.6311 0.718734 15.4833 0.666504 15.3293 0.666504H10.6816" stroke="#9E2040" stroke-width="0.77551" stroke-linecap="round" stroke-linejoin="round"/>
<path d="M10.6816 13.556H15.3293C15.4833 13.556 15.6311 13.5037 15.7401 13.4108C15.849 13.3178 15.9102 13.1917 15.9102 13.0602V9.09424" stroke="#9E2040" stroke-width="0.77551" stroke-linecap="round" stroke-linejoin="round"/>
<path d="M0.806641 9.09424V13.0602C0.806641 13.1917 0.867848 13.3178 0.976798 13.4108C1.08575 13.5037 1.23351 13.556 1.38759 13.556H6.03521" stroke="#9E2040" stroke-width="0.77551" stroke-linecap="round" stroke-linejoin="round"/>
<path d="M10.36 5.21952C10.2506 4.95524 10.0478 4.72643 9.77957 4.56468C9.51133 4.40292 9.19087 4.31617 8.86241 4.31641H7.63384C7.28404 4.31592 6.9464 4.42588 6.68592 4.62512C6.42545 4.82435 6.26057 5.09878 6.22303 5.39555C6.18549 5.69232 6.27794 5.99045 6.48259 6.23254C6.68723 6.47462 6.9896 6.64353 7.33146 6.70676L9.2017 7.05622C9.58406 7.12781 9.92196 7.31739 10.1505 7.58857C10.3791 7.85974 10.4823 8.19341 10.4402 8.52552C10.3982 8.85762 10.2138 9.16477 9.92264 9.38801C9.63143 9.61125 9.25387 9.73485 8.86241 9.73507H7.80527C7.4767 9.73509 7.15622 9.64813 6.888 9.4862C6.61977 9.32427 6.41701 9.09534 6.30765 8.83095" stroke="#9E2040" stroke-width="0.77551" stroke-linecap="round" stroke-linejoin="round"/>
<path d="M8.33398 4.31762V2.96143" stroke="#9E2040" stroke-width="0.77551" stroke-linecap="round" stroke-linejoin="round"/>
<path d="M8.33398 11.0895V9.73535" stroke="#9E2040" stroke-width="0.77551" stroke-linecap="round" stroke-linejoin="round"/>
</g>
<defs>
<clipPath id="clip0_3459_11118">
<rect width="16.6667" height="14.2222" fill="white"/>
</clipPath>
</defs>
</svg>
