<svg width="14" height="14" viewBox="0 0 14 14" fill="none" xmlns="http://www.w3.org/2000/svg">
<g clip-path="url(#clip0_2923_25280)">
<path d="M7.00007 9.00001C7.55582 9.00001 8.10613 8.89055 8.61958 8.67787C9.13303 8.46519 9.59956 8.15346 9.99254 7.76049C10.3855 7.36751 10.6972 6.90098 10.9099 6.38753C11.1226 5.87408 11.2321 5.32377 11.2321 4.76801C11.2321 4.21226 11.1226 3.66194 10.9099 3.14849C10.6972 2.63504 10.3855 2.16851 9.99254 1.77553C9.59956 1.38256 9.13303 1.07083 8.61958 0.858153C8.10613 0.645475 7.55582 0.536011 7.00007 0.536011C5.87767 0.536011 4.80124 0.981881 4.00759 1.77553C3.21394 2.56919 2.76807 3.64562 2.76807 4.76801C2.76807 5.89041 3.21394 6.96683 4.00759 7.76049C4.80124 8.55414 5.87767 9.00001 7.00007 9.00001Z" fill="white"/>
<path d="M13.1798 13.5C12.76 12.1909 11.9353 11.0489 10.8246 10.2387C9.71392 9.42846 8.37463 8.99188 6.99982 8.99188C5.62502 8.99188 4.28573 9.42846 3.17504 10.2387C2.06435 11.0489 1.23965 12.1909 0.819824 13.5H13.1798Z" fill="white"/>
<path d="M13.1798 13.5C12.76 12.1909 11.9353 11.0489 10.8246 10.2387C9.71392 9.42846 8.37463 8.99188 6.99982 8.99188C5.62502 8.99188 4.28573 9.42846 3.17504 10.2387C2.06435 11.0489 1.23965 12.1909 0.819824 13.5H13.1798Z" stroke="white" stroke-linecap="round" stroke-linejoin="round"/>
<path d="M7.00007 9.00001C7.55582 9.00001 8.10613 8.89055 8.61958 8.67787C9.13303 8.46519 9.59956 8.15346 9.99254 7.76049C10.3855 7.36751 10.6972 6.90098 10.9099 6.38753C11.1226 5.87408 11.2321 5.32377 11.2321 4.76801C11.2321 4.21226 11.1226 3.66194 10.9099 3.14849C10.6972 2.63504 10.3855 2.16851 9.99254 1.77553C9.59956 1.38256 9.13303 1.07083 8.61958 0.858153C8.10613 0.645475 7.55582 0.536011 7.00007 0.536011C5.87767 0.536011 4.80124 0.981881 4.00759 1.77553C3.21394 2.56919 2.76807 3.64561 2.76807 4.76801C2.76807 5.89041 3.21394 6.96683 4.00759 7.76049C4.80124 8.55414 5.87767 9.00001 7.00007 9.00001Z" stroke="white" stroke-linecap="round" stroke-linejoin="round"/>
<path d="M8.38168 6.40503C8.38168 6.40503 8.02968 7.09603 6.99968 7.09603C5.96968 7.09603 5.61768 6.40603 5.61768 6.40603" stroke="white" stroke-linecap="round" stroke-linejoin="round"/>
<path d="M11.1547 3.962H11.1267C10.5423 3.96256 9.96455 3.83871 9.43178 3.59871C8.899 3.3587 8.42342 3.00803 8.03666 2.57C7.64978 3.00815 7.17403 3.3589 6.64108 3.59891C6.10812 3.83892 5.53016 3.9627 4.94566 3.962C4.25646 3.96344 3.57798 3.7915 2.97266 3.462C3.2629 2.57001 3.84114 1.79965 4.61661 1.27187C5.39207 0.744082 6.32085 0.488757 7.25713 0.545973C8.19341 0.603189 9.08419 0.969707 9.78962 1.58799C10.495 2.20627 10.9752 3.0413 11.1547 3.962Z" fill="white"/>
<path d="M11.1547 3.962H11.1267C10.5423 3.96256 9.96455 3.83871 9.43178 3.59871C8.899 3.3587 8.42342 3.00803 8.03666 2.57C7.64978 3.00815 7.17403 3.3589 6.64108 3.59891C6.10812 3.83892 5.53016 3.9627 4.94566 3.962C4.25647 3.96344 3.57798 3.7915 2.97266 3.462C3.2629 2.57001 3.84114 1.79965 4.61661 1.27187C5.39207 0.744082 6.32085 0.488757 7.25713 0.545973C8.19341 0.603189 9.08419 0.969707 9.78962 1.58799C10.495 2.20627 10.9752 3.0413 11.1547 3.962Z" stroke="white" stroke-linecap="round" stroke-linejoin="round"/>
</g>
<defs>
<clipPath id="clip0_2923_25280">
<rect width="14" height="14" fill="white"/>
</clipPath>
</defs>
</svg>
