<svg width="19" height="19" viewBox="0 0 19 19" fill="none" xmlns="http://www.w3.org/2000/svg">
<path d="M9.375 14.5833C9.67014 14.5833 9.91771 14.4833 10.1177 14.2833C10.3177 14.0833 10.4174 13.8361 10.4167 13.5417C10.416 13.2472 10.316 13 10.1167 12.8C9.91736 12.6 9.67014 12.5 9.375 12.5C9.07986 12.5 8.83264 12.6 8.63333 12.8C8.43403 13 8.33403 13.2472 8.33333 13.5417C8.33264 13.8361 8.43264 14.0837 8.63333 14.2844C8.83403 14.4851 9.08125 14.5847 9.375 14.5833ZM10.1177 10.1167C10.317 9.91736 10.4167 9.67014 10.4167 9.375V5.20833C10.4167 4.91319 10.3167 4.66597 10.1167 4.46667C9.91667 4.26736 9.66944 4.16736 9.375 4.16667C9.08056 4.16597 8.83333 4.26597 8.63333 4.46667C8.43333 4.66736 8.33333 4.91458 8.33333 5.20833V9.375C8.33333 9.67014 8.43333 9.91771 8.63333 10.1177C8.83333 10.3177 9.08056 10.4174 9.375 10.4167C9.66944 10.416 9.91701 10.316 10.1177 10.1167ZM6.32812 18.75C6.05035 18.75 5.78576 18.6979 5.53437 18.5937C5.28299 18.4896 5.06146 18.342 4.86979 18.151L0.598958 13.8802C0.407986 13.6892 0.260417 13.4677 0.15625 13.2156C0.0520834 12.9635 0 12.6993 0 12.4229V6.32917C0 6.05139 0.0520834 5.78681 0.15625 5.53542C0.260417 5.28403 0.407986 5.0625 0.598958 4.87083L4.86979 0.6C5.06076 0.409028 5.28229 0.261458 5.53437 0.157292C5.78646 0.053125 6.05104 0.000694444 6.32812 0H12.4219C12.6997 0 12.9646 0.0520834 13.2167 0.15625C13.4687 0.260417 13.6899 0.407986 13.8802 0.598958L18.151 4.86979C18.342 5.06076 18.4896 5.28229 18.5937 5.53437C18.6979 5.78646 18.75 6.05104 18.75 6.32812V12.4219C18.75 12.6997 18.6979 12.9646 18.5937 13.2167C18.4896 13.4687 18.342 13.6899 18.151 13.8802L13.8802 18.151C13.6892 18.342 13.4677 18.4896 13.2156 18.5937C12.9635 18.6979 12.699 18.75 12.4219 18.75H6.32812Z" fill="white"/>
</svg>
