<svg width="20" height="21" viewBox="0 0 20 21" fill="none" xmlns="http://www.w3.org/2000/svg">
<path d="M10.5 0.5H3.35714C2.97826 0.5 2.6149 0.654536 2.34699 0.929612C2.07908 1.20469 1.92857 1.57777 1.92857 1.96679V15.1679L0.5 19.5682L6.21429 18.1015H17.6429C18.0217 18.1015 18.3851 17.9469 18.653 17.6718C18.9209 17.3968 19.0714 17.0237 19.0714 16.6347V9.30073" stroke="#9E2040" stroke-linecap="round" stroke-linejoin="round"/>
<path d="M11.733 11.7019L7.44727 12.494L8.16155 8.03496L14.9187 1.12639C15.0514 0.988728 15.2094 0.879451 15.3835 0.804873C15.5576 0.730294 15.7443 0.691895 15.933 0.691895C16.1216 0.691895 16.3084 0.730294 16.4825 0.804873C16.6566 0.879451 16.8146 0.988728 16.9473 1.12639L18.4616 2.68118C18.5954 2.81754 18.7017 2.97977 18.7743 3.15851C18.8468 3.33725 18.8841 3.52897 18.8841 3.7226C18.8841 3.91623 18.8468 4.10795 18.7743 4.28669C18.7017 4.46543 18.5954 4.62766 18.4616 4.76402L11.733 11.7019Z" stroke="#9E2040" stroke-linecap="round" stroke-linejoin="round"/>
</svg>
