<svg xmlns="http://www.w3.org/2000/svg" xmlns:xlink="http://www.w3.org/1999/xlink" width="40" zoomAndPan="magnify" viewBox="0 0 30 30.000001" height="40" preserveAspectRatio="xMidYMid meet" version="1.0"><defs><clipPath id="acadcf958c"><path d="M 15 13 L 29.515625 13 L 29.515625 28.816406 L 15 28.816406 Z M 15 13 " clip-rule="nonzero"/></clipPath><clipPath id="e41a54d5df"><path d="M 0.484375 0.507812 L 27 0.507812 L 27 27 L 0.484375 27 Z M 0.484375 0.507812 " clip-rule="nonzero"/></clipPath></defs><path fill="#ffffff" d="M 13.527344 6.132812 C 13.800781 6.132812 14.023438 5.910156 14.023438 5.636719 L 14.023438 4.9375 C 14.023438 4.664062 13.800781 4.441406 13.527344 4.441406 C 13.253906 4.441406 13.03125 4.664062 13.03125 4.9375 L 13.03125 5.636719 C 13.03125 5.910156 13.253906 6.132812 13.527344 6.132812 Z M 13.527344 6.132812 " fill-opacity="1" fill-rule="nonzero"/><path fill="#ffffff" d="M 13.03125 21.316406 L 13.03125 22.011719 C 13.03125 22.289062 13.253906 22.511719 13.527344 22.511719 C 13.800781 22.511719 14.023438 22.289062 14.023438 22.011719 L 14.023438 21.316406 C 14.023438 21.042969 13.800781 20.820312 13.527344 20.820312 C 13.253906 20.820312 13.03125 21.042969 13.03125 21.316406 Z M 13.03125 21.316406 " fill-opacity="1" fill-rule="nonzero"/><path fill="#ffffff" d="M 4.492188 13.476562 C 4.492188 13.75 4.714844 13.972656 4.988281 13.972656 L 5.6875 13.972656 C 5.960938 13.972656 6.183594 13.75 6.183594 13.476562 C 6.183594 13.199219 5.960938 12.976562 5.6875 12.976562 L 4.988281 12.976562 C 4.714844 12.976562 4.492188 13.199219 4.492188 13.476562 Z M 4.492188 13.476562 " fill-opacity="1" fill-rule="nonzero"/><path fill="#ffffff" d="M 17.335938 5.816406 L 16.988281 6.421875 C 16.851562 6.660156 16.933594 6.964844 17.171875 7.101562 C 17.25 7.144531 17.335938 7.167969 17.421875 7.167969 C 17.59375 7.167969 17.761719 7.078125 17.851562 6.917969 L 18.199219 6.3125 C 18.335938 6.074219 18.253906 5.769531 18.015625 5.632812 C 17.777344 5.496094 17.472656 5.578125 17.335938 5.816406 Z M 17.335938 5.816406 " fill-opacity="1" fill-rule="nonzero"/><path fill="#ffffff" d="M 9.882812 19.847656 C 9.640625 19.710938 9.339844 19.796875 9.203125 20.035156 L 8.855469 20.640625 C 8.71875 20.878906 8.800781 21.183594 9.042969 21.316406 C 9.121094 21.363281 9.203125 21.382812 9.289062 21.382812 C 9.460938 21.382812 9.628906 21.292969 9.722656 21.132812 L 10.066406 20.527344 C 10.203125 20.289062 10.121094 19.984375 9.882812 19.847656 Z M 9.882812 19.847656 " fill-opacity="1" fill-rule="nonzero"/><path fill="#ffffff" d="M 5.871094 9.667969 L 6.476562 10.015625 C 6.550781 10.058594 6.636719 10.082031 6.722656 10.082031 C 6.894531 10.082031 7.0625 9.988281 7.152344 9.828125 C 7.289062 9.589844 7.207031 9.285156 6.96875 9.148438 L 6.363281 8.804688 C 6.125 8.667969 5.820312 8.75 5.683594 8.988281 C 5.546875 9.226562 5.632812 9.53125 5.871094 9.667969 Z M 5.871094 9.667969 " fill-opacity="1" fill-rule="nonzero"/><path fill="#ffffff" d="M 10.066406 6.421875 L 9.71875 5.816406 C 9.582031 5.578125 9.28125 5.496094 9.039062 5.632812 C 8.800781 5.769531 8.71875 6.074219 8.855469 6.3125 L 9.203125 6.917969 C 9.292969 7.078125 9.460938 7.167969 9.632812 7.167969 C 9.71875 7.167969 9.804688 7.144531 9.882812 7.101562 C 10.121094 6.964844 10.203125 6.660156 10.066406 6.421875 Z M 10.066406 6.421875 " fill-opacity="1" fill-rule="nonzero"/><path fill="#ffffff" d="M 6.117188 18.210938 C 6.199219 18.210938 6.285156 18.191406 6.363281 18.148438 L 6.96875 17.800781 C 7.207031 17.664062 7.289062 17.359375 7.152344 17.121094 C 7.019531 16.882812 6.714844 16.800781 6.476562 16.9375 L 5.871094 17.28125 C 5.632812 17.417969 5.546875 17.722656 5.683594 17.960938 C 5.777344 18.121094 5.945312 18.210938 6.117188 18.210938 Z M 6.117188 18.210938 " fill-opacity="1" fill-rule="nonzero"/><path fill="#ffffff" d="M 20.691406 8.804688 L 20.085938 9.148438 C 19.847656 9.285156 19.765625 9.589844 19.902344 9.828125 C 19.992188 9.988281 20.160156 10.078125 20.332031 10.078125 C 20.417969 10.078125 20.503906 10.058594 20.582031 10.015625 L 21.1875 9.667969 C 21.425781 9.53125 21.507812 9.226562 21.371094 8.988281 C 21.234375 8.75 20.929688 8.667969 20.691406 8.804688 Z M 20.691406 8.804688 " fill-opacity="1" fill-rule="nonzero"/><path fill="#ffffff" d="M 16.199219 18.148438 C 16.4375 18.011719 16.523438 17.707031 16.386719 17.46875 L 14.027344 13.34375 L 14.027344 7.441406 C 14.027344 7.167969 13.804688 6.945312 13.527344 6.945312 C 13.253906 6.945312 13.03125 7.167969 13.03125 7.441406 L 13.03125 13.476562 C 13.03125 13.5625 13.054688 13.648438 13.097656 13.722656 L 15.519531 17.960938 C 15.613281 18.121094 15.78125 18.210938 15.953125 18.210938 C 16.039062 18.210938 16.121094 18.191406 16.199219 18.148438 Z M 16.199219 18.148438 " fill-opacity="1" fill-rule="nonzero"/><g clip-path="url(#acadcf958c)"><path fill="#ffffff" d="M 24.183594 20.226562 L 23.6875 20.226562 C 25.167969 19.742188 26.238281 18.351562 26.238281 16.707031 C 26.238281 14.660156 24.578125 13.003906 22.53125 13.003906 C 20.484375 13.003906 18.824219 14.660156 18.824219 16.707031 C 18.824219 18.351562 19.894531 19.742188 21.371094 20.226562 L 20.875 20.226562 C 17.976562 20.226562 15.625 22.578125 15.625 25.476562 L 15.625 29.039062 L 29.4375 29.039062 L 29.4375 25.476562 C 29.4375 22.578125 27.085938 20.226562 24.1875 20.226562 Z M 24.183594 20.226562 " fill-opacity="1" fill-rule="nonzero"/></g><g clip-path="url(#e41a54d5df)"><path fill="#ffffff" d="M 13.527344 26.4375 C 13.898438 26.4375 14.269531 26.421875 14.632812 26.390625 L 14.632812 25.480469 C 14.632812 24.988281 14.6875 24.511719 14.796875 24.050781 C 14.378906 24.101562 13.953125 24.128906 13.527344 24.128906 C 7.648438 24.128906 2.875 19.359375 2.875 13.476562 C 2.875 7.589844 7.648438 2.824219 13.527344 2.824219 C 19.007812 2.824219 23.515625 6.964844 24.113281 12.285156 C 25.101562 12.648438 25.929688 13.335938 26.46875 14.222656 C 26.484375 13.972656 26.488281 13.722656 26.488281 13.476562 C 26.488281 6.316406 20.683594 0.511719 13.527344 0.511719 C 6.367188 0.511719 0.566406 6.316406 0.566406 13.476562 C 0.566406 20.632812 6.367188 26.4375 13.527344 26.4375 Z M 13.527344 26.4375 " fill-opacity="1" fill-rule="nonzero"/></g></svg>