<svg width="17" height="15" viewBox="0 0 17 15" fill="none" xmlns="http://www.w3.org/2000/svg">
<g clip-path="url(#clip0_3459_11153)">
<path d="M2.38086 11.1747V5.5874H14.2856V11.1747H2.38086Z" fill="white"/>
<path d="M15.3706 5.5874H1.29916C0.632495 5.5874 0.346781 4.96771 0.87059 4.67311L7.9063 0.741682C8.0362 0.676475 8.18417 0.64209 8.33488 0.64209C8.48558 0.64209 8.63355 0.676475 8.76345 0.741682L15.7992 4.67311C16.323 4.96771 16.0373 5.5874 15.3706 5.5874Z" fill="white"/>
<path d="M15.4767 11.1748H1.19094C1.03307 11.1748 0.881673 11.2283 0.770044 11.3236C0.658415 11.4188 0.595703 11.548 0.595703 11.6827V13.2066C0.595703 13.3413 0.658415 13.4705 0.770044 13.5657C0.881673 13.661 1.03307 13.7145 1.19094 13.7145H15.4767C15.6345 13.7145 15.7859 13.661 15.8976 13.5657C16.0092 13.4705 16.0719 13.3413 16.0719 13.2066V11.6827C16.0719 11.548 16.0092 11.4188 15.8976 11.3236C15.7859 11.2283 15.6345 11.1748 15.4767 11.1748Z" fill="white"/>
<path d="M15.3706 5.5874H1.29916C0.632495 5.5874 0.346781 4.96771 0.87059 4.67311L7.9063 0.741682C8.0362 0.676475 8.18417 0.64209 8.33488 0.64209C8.48558 0.64209 8.63355 0.676475 8.76345 0.741682L15.7992 4.67311C16.323 4.96771 16.0373 5.5874 15.3706 5.5874Z" stroke="#9E2040" stroke-width="0.71603" stroke-linecap="round" stroke-linejoin="round"/>
<path d="M15.4767 11.1748H1.19094C1.03307 11.1748 0.881673 11.2283 0.770044 11.3236C0.658415 11.4188 0.595703 11.548 0.595703 11.6827V13.2066C0.595703 13.3413 0.658415 13.4705 0.770044 13.5657C0.881673 13.661 1.03307 13.7145 1.19094 13.7145H15.4767C15.6345 13.7145 15.7859 13.661 15.8976 13.5657C16.0092 13.4705 16.0719 13.3413 16.0719 13.2066V11.6827C16.0719 11.548 16.0092 11.4188 15.8976 11.3236C15.7859 11.2283 15.6345 11.1748 15.4767 11.1748Z" stroke="#9E2040" stroke-width="0.71603" stroke-linecap="round" stroke-linejoin="round"/>
<path d="M2.38086 5.5874V11.1747" stroke="#9E2040" stroke-width="0.71603" stroke-linecap="round" stroke-linejoin="round"/>
<path d="M6.34961 5.5874V11.1747" stroke="#9E2040" stroke-width="0.71603" stroke-linecap="round" stroke-linejoin="round"/>
<path d="M10.3184 5.5874V11.1747" stroke="#9E2040" stroke-width="0.71603" stroke-linecap="round" stroke-linejoin="round"/>
<path d="M14.2871 5.5874V11.1747" stroke="#9E2040" stroke-width="0.71603" stroke-linecap="round" stroke-linejoin="round"/>
</g>
<defs>
<clipPath id="clip0_3459_11153">
<rect width="16.6667" height="14.2222" fill="white"/>
</clipPath>
</defs>
</svg>
