<svg width="18" height="16" viewBox="0 0 18 16" fill="none" xmlns="http://www.w3.org/2000/svg">
<path d="M7.31055 15.5H9.78727Z" fill="white"/>
<path d="M7.31055 15.5H9.78727" stroke="white" stroke-linecap="round" stroke-linejoin="round"/>
<path d="M8.54883 2.2002C9.73491 2.2002 10.87 2.65667 11.7041 3.46484C12.5376 4.2725 13.0029 5.36479 13.0029 6.5V10.7002C13.0029 11.169 13.1498 11.621 13.416 12H3.68164C3.94802 11.6209 4.0957 11.1692 4.0957 10.7002V6.5C4.09576 5.3648 4.56106 4.27251 5.39453 3.46484C6.22849 2.6568 7.36293 2.20031 8.54883 2.2002Z" fill="white" stroke="white"/>
<path d="M13.5027 6.5002C13.5027 5.22715 12.9809 4.00626 12.0519 3.10608C11.1229 2.20591 9.86301 1.7002 8.54927 1.7002C7.23553 1.7002 5.97561 2.20591 5.04665 3.10608C4.11771 4.00626 3.59582 5.22715 3.59582 6.5002V10.7002C3.59582 11.1776 3.40011 11.6355 3.05176 11.973C2.70341 12.3106 2.23093 12.5002 1.73828 12.5002H15.3603C14.8676 12.5002 14.3951 12.3106 14.0467 11.973C13.6984 11.6355 13.5027 11.1776 13.5027 10.7002V6.5002Z" fill="white" stroke="white" stroke-linecap="round" stroke-linejoin="round"/>
<path d="M0.5 6.344C0.500667 5.20177 0.781769 4.07608 1.32009 3.05992C1.85841 2.04376 2.63849 1.1663 3.5959 0.5" fill="white"/>
<path d="M0.5 6.344C0.500667 5.20177 0.781769 4.07608 1.32009 3.05992C1.85841 2.04376 2.63849 1.1663 3.5959 0.5" stroke="white" stroke-linecap="round" stroke-linejoin="round"/>
<path d="M16.5979 6.344C16.5972 5.20177 16.3161 4.07608 15.7778 3.05992C15.2395 2.04376 14.4593 1.1663 13.502 0.5" fill="white"/>
<path d="M16.5979 6.344C16.5972 5.20177 16.3161 4.07608 15.7778 3.05992C15.2395 2.04376 14.4593 1.1663 13.502 0.5" stroke="white" stroke-linecap="round" stroke-linejoin="round"/>
</svg>
