<svg width="24" height="27" viewBox="0 0 24 27" fill="none" xmlns="http://www.w3.org/2000/svg">
<path d="M22.402 26.3553H1.31776C0.968271 26.3553 0.633093 26.2165 0.385964 25.9693C0.138835 25.7222 0 25.387 0 25.0375V1.31776C0 0.968271 0.138835 0.633093 0.385964 0.385964C0.633093 0.138835 0.968271 0 1.31776 0H22.402C22.7515 0 23.0867 0.138835 23.3338 0.385964C23.5809 0.633093 23.7198 0.968271 23.7198 1.31776V25.0375C23.7198 25.387 23.5809 25.7222 23.3338 25.9693C23.0867 26.2165 22.7515 26.3553 22.402 26.3553ZM6.58882 9.22435V11.8599H17.1309V9.22435H6.58882ZM6.58882 14.4954V17.1309H17.1309V14.4954H6.58882Z" fill="white"/>
</svg>
