<svg width="20" height="16" viewBox="0 0 20 16" fill="none" xmlns="http://www.w3.org/2000/svg">
<path d="M9.78557 11.5714C11.5608 11.5714 12.9999 10.1323 12.9999 8.35711C12.9999 6.58191 11.5608 5.14282 9.78557 5.14282C8.01037 5.14282 6.57129 6.58191 6.57129 8.35711C6.57129 10.1323 8.01037 11.5714 9.78557 11.5714Z" fill="white"/>
<path fill-rule="evenodd" clip-rule="evenodd" d="M18.653 3.77556C18.9209 4.04347 19.0714 4.40683 19.0714 4.78571V13.3571C19.0714 13.736 18.9209 14.0994 18.653 14.3673C18.3851 14.6351 18.0217 14.7857 17.6429 14.7857H1.92857C1.54969 14.7857 1.18633 14.6351 0.918419 14.3673C0.65051 14.0994 0.5 13.736 0.5 13.3571V4.78571C0.5 4.40683 0.65051 4.04347 0.918419 3.77556C1.18633 3.50766 1.54969 3.35714 1.92857 3.35714H4.78571L6.92857 0.5H12.6429L14.7857 3.35714H17.6429C18.0217 3.35714 18.3851 3.50766 18.653 3.77556ZM13 8.35714C13 10.1323 11.5609 11.5714 9.78571 11.5714C8.01051 11.5714 6.57143 10.1323 6.57143 8.35714C6.57143 6.58194 8.01051 5.14286 9.78571 5.14286C11.5609 5.14286 13 6.58194 13 8.35714Z" fill="white"/>
<path d="M9.78557 11.5714C11.5608 11.5714 12.9999 10.1323 12.9999 8.35711C12.9999 6.58191 11.5608 5.14282 9.78557 5.14282C8.01037 5.14282 6.57129 6.58191 6.57129 8.35711C6.57129 10.1323 8.01037 11.5714 9.78557 11.5714Z" stroke="#9E2040" stroke-linecap="round" stroke-linejoin="round"/>
<path d="M19.0714 4.78571C19.0714 4.40683 18.9209 4.04347 18.653 3.77556C18.3851 3.50766 18.0217 3.35714 17.6429 3.35714H14.7857L12.6429 0.5H6.92857L4.78571 3.35714H1.92857C1.54969 3.35714 1.18633 3.50766 0.918419 3.77556C0.65051 4.04347 0.5 4.40683 0.5 4.78571V13.3571C0.5 13.736 0.65051 14.0994 0.918419 14.3673C1.18633 14.6351 1.54969 14.7857 1.92857 14.7857H17.6429C18.0217 14.7857 18.3851 14.6351 18.653 14.3673C18.9209 14.0994 19.0714 13.736 19.0714 13.3571V4.78571Z" stroke="#9E2040" stroke-linecap="round" stroke-linejoin="round"/>
</svg>
