<svg width="14" height="13" viewBox="0 0 14 13" fill="none" xmlns="http://www.w3.org/2000/svg">
<path d="M11.5684 9C12.1207 9 12.5684 9.44772 12.5684 10V11.5C12.5684 12.0523 12.1207 12.5 11.5684 12.5H1.56836C1.01607 12.5 0.568359 12.0523 0.568359 11.5V10C0.568359 9.44771 1.01608 9 1.56836 9H11.5684Z" fill="white"/>
<path d="M12.0371 0.5C12.3133 0.5 12.5371 0.72386 12.5371 1V2.25C12.5371 2.52614 12.3133 2.75 12.0371 2.75H10.0684C9.79226 2.75 9.56836 2.52614 9.56836 2.25V1C9.56836 0.72386 9.79226 0.5 10.0684 0.5H12.0371Z" fill="white"/>
<path d="M12.0371 4.75C12.3133 4.75 12.5371 4.97386 12.5371 5.25V6.5C12.5371 6.77614 12.3133 7 12.0371 7H10.0684C9.79226 7 9.56836 6.77614 9.56836 6.5V5.25C9.56836 4.97386 9.79226 4.75 10.0684 4.75H12.0371Z" fill="white"/>
<path d="M11.5684 9C12.1207 9 12.5684 9.44772 12.5684 10V11.5C12.5684 12.0523 12.1207 12.5 11.5684 12.5H1.56836C1.01607 12.5 0.568359 12.0523 0.568359 11.5V10C0.568359 9.44771 1.01608 9 1.56836 9H11.5684Z" stroke="white" stroke-linecap="round" stroke-linejoin="round"/>
<path d="M6.56839 0.5C7.12067 0.5 7.56839 0.94772 7.56839 1.5V6C7.56839 6.55228 7.12067 7 6.56839 7H1.5C0.947719 7 0.500001 6.55228 0.500001 6L0.5 1.5C0.5 0.94771 0.947719 0.5 1.5 0.5H6.56839Z" stroke="white" stroke-linecap="round" stroke-linejoin="round"/>
<path d="M12.0371 0.5C12.3133 0.5 12.5371 0.72386 12.5371 1V2.25C12.5371 2.52614 12.3133 2.75 12.0371 2.75H10.0684C9.79226 2.75 9.56836 2.52614 9.56836 2.25V1C9.56836 0.72386 9.79226 0.5 10.0684 0.5H12.0371Z" stroke="white" stroke-linecap="round" stroke-linejoin="round"/>
<path d="M12.0371 4.75C12.3133 4.75 12.5371 4.97386 12.5371 5.25V6.5C12.5371 6.77614 12.3133 7 12.0371 7H10.0684C9.79226 7 9.56836 6.77614 9.56836 6.5V5.25C9.56836 4.97386 9.79226 4.75 10.0684 4.75H12.0371Z" stroke="white" stroke-linecap="round" stroke-linejoin="round"/>
</svg>
